<?xml version="1.0" encoding="utf-8"?>
<!-- Generator: Adobe Illustrator 28.0.0, SVG Export Plug-In . SVG Version: 6.00 Build 0)  -->
<svg version="1.1" id="Layer_1" xmlns="http://www.w3.org/2000/svg" xmlns:xlink="http://www.w3.org/1999/xlink" x="0px" y="0px"
	 viewBox="0 0 1000 405.2" style="enable-background:new 0 0 1000 405.2;" xml:space="preserve">
<style type="text/css">
	.st0{fill:#FFFFFF;}
</style>
<g>
	<g>
		<path class="st0" d="M443.3,222.9h-60.5v-63.3c0-4.6-3.8-8.4-8.4-8.4h-19.5c-4.6,0-8.4,3.8-8.4,8.4v63.3h-60.5
			c-4.6,0-8.4,3.8-8.4,8.4v18.3c0,4.6,3.8,8.4,8.4,8.4h60.5v63.9c0,4.6,3.8,8.4,8.4,8.4h19.5c4.6,0,8.4-3.8,8.4-8.4v-63.9h60.5
			c4.6,0,8.4-3.8,8.4-8.4v-18.3C451.7,226.7,448,222.9,443.3,222.9z"/>
		<path class="st0" d="M222.5,405.2c-1.9,0-3.8-0.7-5.2-2.1l-163-156c-0.1-0.1-0.3-0.3-0.4-0.4L34,224.4
			c-23-25.9-35.1-59.7-33.9-95.2c1.1-35.4,15.4-68.3,40-92.6l0.7-0.7c24.7-24.3,56.9-37,90.7-35.9c34,1.2,65.5,16.2,88.6,42.3l3,3.3
			l3-3.3c23.2-26.1,54.6-41.1,88.6-42.3c33.8-1.1,66.1,11.6,90.8,35.9c13,12.8,23.1,28,30,45.1c6.7,16.5,10,34,10,52
			c0,14.1-2.1,28-6.3,41.4c-1.2,4-5.5,6.2-9.5,5c-4-1.2-6.2-5.5-5-9.5c3.7-11.9,5.6-24.3,5.6-36.9c0-32.6-13-64.1-35.6-86.3
			c-21.7-21.3-50-32.5-79.6-31.5c-29.8,1-57.4,14.2-77.8,37.2l-8.6,9.7c-1.4,1.6-3.5,2.5-5.7,2.6c0,0,0,0,0,0
			c-2.2,0-4.2-0.9-5.7-2.5l-8.6-9.7c-20.4-23-48-36.2-77.8-37.2c-29.6-1-57.9,10.2-79.6,31.5l-0.7,0.7
			C5.5,91.9,3.1,166.8,45.3,214.4l19.6,22.1l157.6,150.7l68.8-65.9c3-2.9,7.8-2.8,10.7,0.2c2.9,3,2.8,7.8-0.2,10.7l-74,70.9
			C226.3,404.5,224.4,405.2,222.5,405.2z"/>
	</g>
	<g>
		<path class="st0" d="M609.8,136.5h-29.1L572,96.8c-0.4-1.7-1.1-5-2-9.9c-0.9-4.9-1.5-9.1-2-12.4c-0.3,2.7-0.9,6.1-1.6,10.1
			c-0.7,4-1.5,7.7-2.2,11.1c-0.7,3.4-3.8,17-9.1,40.9H526l-22.6-91.2h23.8l9.9,45.7c2.2,10.1,3.8,18.1,4.6,24.1
			c0.5-4.2,1.5-10,2.9-17.3c1.4-7.3,2.7-13.3,3.9-18.1l8-34.5h22.8l7.8,34.5c1.3,5.5,2.7,11.9,4.1,19.1c1.4,7.2,2.3,12.6,2.7,16.2
			c0.5-4.6,2-12.6,4.4-24l10.1-45.8h23.8L609.8,136.5z"/>
		<path class="st0" d="M698.2,136.5h-54.1V45.4h54.1v19.8h-29.5v14.3H696v19.8h-27.3v17.2h29.5V136.5z"/>
		<path class="st0" d="M714.2,45.4H746c12.4,0,21.6,1.8,27.6,5.5c6,3.7,9,9.4,9,17.2c0,5.1-1.3,9.5-3.9,13.1
			c-2.6,3.6-6.1,5.9-10.4,7v0.6c5.7,1.5,9.7,4,12.3,7.5c2.5,3.5,3.8,8,3.8,13.6c0,8.3-3.1,14.8-9.3,19.6s-14.7,7.1-25.4,7.1h-35.5
			V45.4z M738.8,80.3h7.4c3.5,0,6.3-0.7,8.2-2.2c1.9-1.5,2.9-3.6,2.9-6.5c0-5.1-3.9-7.7-11.6-7.7h-6.9V80.3z M738.8,98.4v19.1h8.7
			c7.7,0,11.5-3.2,11.5-9.7c0-3-1-5.4-3.1-7c-2.1-1.6-5-2.4-9-2.4H738.8z"/>
		<path class="st0" d="M589.5,264.3h-24.8v-37.2h-28.6v37.2h-24.8v-91.2h24.8v33.8h28.6v-33.8h24.8V264.3z"/>
		<path class="st0" d="M663.3,264.3h-54.1v-91.2h54.1v19.8h-29.5v14.3h27.3V227h-27.3v17.2h29.5V264.3z"/>
		<path class="st0" d="M735.2,264.3l-4.5-17.1h-29.6l-4.6,17.1h-27.1l29.8-91.6h32.9l30.1,91.6H735.2z M725.6,227l-3.9-15
			c-0.9-3.3-2-7.6-3.3-12.9c-1.3-5.3-2.2-9.1-2.6-11.4c-0.4,2.1-1.1,5.6-2.2,10.5c-1.1,4.9-3.5,14.4-7.3,28.8H725.6z"/>
		<path class="st0" d="M772,264.3v-91.2h24.6v71.3h35.1v19.9H772z"/>
		<path class="st0" d="M886.6,264.3H862v-71h-22.3v-20.1h69.1v20.1h-22.2V264.3z"/>
		<path class="st0" d="M1000,264.3h-24.8v-37.2h-28.6v37.2h-24.8v-91.2h24.8v33.8h28.6v-33.8h24.8V264.3z"/>
	</g>
	<g>
		<path class="st0" d="M535.5,305.3c-6.5,0-11.6,2.2-15.4,6.5c-3.8,4.3-5.6,10.2-5.6,17.7c0,7.7,1.8,13.7,5.4,17.9
			c3.6,4.2,8.8,6.3,15.5,6.3c4.1,0,8.8-0.7,14.1-2.2v6c-4.1,1.5-9.1,2.3-15.1,2.3c-8.7,0-15.4-2.6-20.1-7.9
			c-4.7-5.3-7.1-12.8-7.1-22.5c0-6.1,1.1-11.4,3.4-16c2.3-4.6,5.6-8.1,9.9-10.6c4.3-2.5,9.3-3.7,15.2-3.7c6.2,0,11.6,1.1,16.2,3.4
			l-2.9,5.9C544.4,306.4,540,305.3,535.5,305.3z"/>
		<path class="st0" d="M607.2,359.1h-6.9v-27.8h-31.1v27.8h-6.9v-59h6.9v25.1h31.1V300h6.9V359.1z"/>
		<path class="st0" d="M656.3,359.1h-32.9v-59h32.9v6.1h-26v19h24.5v6.1h-24.5v21.7h26V359.1z"/>
		<path class="st0" d="M694.7,305.3c-6.5,0-11.6,2.2-15.4,6.5c-3.8,4.3-5.6,10.2-5.6,17.7c0,7.7,1.8,13.7,5.4,17.9
			c3.6,4.2,8.8,6.3,15.5,6.3c4.1,0,8.8-0.7,14.1-2.2v6c-4.1,1.5-9.1,2.3-15.1,2.3c-8.7,0-15.4-2.6-20.1-7.9
			c-4.7-5.3-7.1-12.8-7.1-22.5c0-6.1,1.1-11.4,3.4-16c2.3-4.6,5.6-8.1,9.9-10.6c4.3-2.5,9.3-3.7,15.2-3.7c6.2,0,11.6,1.1,16.2,3.4
			l-2.9,5.9C703.6,306.4,699.2,305.3,694.7,305.3z"/>
		<path class="st0" d="M764.2,359.1h-8.1l-21.5-28.6l-6.2,5.5v23.1h-6.9v-59h6.9v29.3l26.8-29.3h8.1l-23.7,25.6L764.2,359.1z"/>
		<path class="st0" d="M817,300v38.2c0,6.7-2,12-6.1,15.9c-4.1,3.9-9.7,5.8-16.8,5.8s-12.6-1.9-16.5-5.8c-3.9-3.9-5.8-9.2-5.8-16
			v-38h6.9v38.5c0,4.9,1.3,8.7,4,11.3c2.7,2.6,6.6,4,11.9,4c5,0,8.8-1.3,11.5-4c2.7-2.7,4-6.5,4-11.4V300H817z"/>
		<path class="st0" d="M870,317.2c0,6-2,10.6-6.1,13.8c-4.1,3.2-9.9,4.8-17.5,4.8h-6.9v23.2h-6.9v-59h15.3
			C862.6,300,870,305.8,870,317.2z M839.4,330h6.2c6.1,0,10.5-1,13.2-2.9c2.7-2,4.1-5.1,4.1-9.5c0-3.9-1.3-6.8-3.8-8.7
			c-2.6-1.9-6.5-2.9-12-2.9h-7.7V330z"/>
	</g>
</g>
</svg>
